PathFileType	4	(x/y/z)	S05_P20_T24
DataRate	CameraRate	NumFrames	NumMarkers	Units	OrigDataRate	OrigDataStartFrame	OrigNumFrames
240	240	11	50	mm	240	90	356
Frame#	Time	Sternum			R.Acromium			L.Acromium			Top.Head			R.ASIS			L.ASIS			R.PSIS			L.PSIS			R.Great.Tro			L.Great.Tro			R.Iliac.Crest			L.Iliac.Crest			V.Sacral			R.Thigh.Upper.Post			R.Thigh.Lower.Ant			R.Thigh.Lower.Post			R.Thigh.Upper.Ant			R.Knee.Lat			R.Knee.Med			R.Shank.Upper.Post			R.Shank.Lower.Ant			R.Shank.Lower.Post			R.Shank.Upper.Ant			R.Ankle.Lat			R.Ankle.Med			R.Heel.Upper			R.Heel.Med			R.Heel.Lat			R.Toe.Lat			R.Toe.Med			R.Toe.Tip			L.Thigh.Upper.Post			L.Thigh.Lower.Ant			L.Thigh.Lower.Post			L.Thigh.Upper.Ant			L.Knee.Lat			L.Shank.Upper.Post			L.Shank.Lower.Ant			L.Shank.Lower.Post			L.Shank.Upper.Ant			L.Ankle.Lat			L.Ankle.Med			L.Heel.Upper			L.Heel.Med			L.Heel.Lat			L.Toe.Lat			L.Toe.Med			L.Toe.Tip			Cervical.Spine			Back			
		X1	Y1	Z1	X2	Y2	Z2	X3	Y3	Z3	X4	Y4	Z4	X5	Y5	Z5	X6	Y6	Z6	X7	Y7	Z7	X8	Y8	Z8	X9	Y9	Z9	X10	Y10	Z10	X11	Y11	Z11	X12	Y12	Z12	X13	Y13	Z13	X14	Y14	Z14	X15	Y15	Z15	X16	Y16	Z16	X17	Y17	Z17	X18	Y18	Z18	X19	Y19	Z19	X20	Y20	Z20	X21	Y21	Z21	X22	Y22	Z22	X23	Y23	Z23	X24	Y24	Z24	X25	Y25	Z25	X26	Y26	Z26	X27	Y27	Z27	X28	Y28	Z28	X29	Y29	Z29	X30	Y30	Z30	X31	Y31	Z31	X32	Y32	Z32	X33	Y33	Z33	X34	Y34	Z34	X35	Y35	Z35	X36	Y36	Z36	X37	Y37	Z37	X38	Y38	Z38	X39	Y39	Z39	X40	Y40	Z40	X41	Y41	Z41	X42	Y42	Z42	X43	Y43	Z43	X44	Y44	Z44	X45	Y45	Z45	X46	Y46	Z46	X47	Y47	Z47	X48	Y48	Z48	X49	Y49	Z49	X50	Y50	Z50	

90	0.37083	-859.8	1273.7	318.11	-953.98	1543.2	462.39	-952.33	1549.7	136.64	-963.01	1838	293.97	-950.7	1025.8	442.13	-932.32	1023.8	194.04	-1150.2	1040.6	351.45	-1143.9	1045.8	260.05	-1022.3	950.79	510.64	-1032	944.62	120.45	-1039.3	1110.8	477.95	-1022.4	1100.8	145.54	-1159.9	1008.9	318.25	-857.87	776.6	513.51	-779.97	739.62	457.17	-823.37	694.03	494.42	-819.54	818.75	473.94	-792.81	601.99	478.08	-781.41	595.1	348.23	-875.97	368.03	451.3	-818.94	299.06	451.77	-880.04	294.03	431.24	-813.72	374.61	470.82	-842.7	198.96	429.18	-825.49	227.58	344.63	-909.21	148.45	358.51	-893.65	119.15	330.49	-904.39	118.61	394.45	-748.74	107.96	466.29	-698.54	122.84	353.79	-644.65	142.7	407.64	-1055.1	707.12	135.09	-983.24	626.83	162.17	-1054.8	613.35	155	-976.17	715.67	141.57	-1056.1	520.49	165.53	-1149	328.92	172.03	-1088.8	263.07	177.31	-1160.1	259.22	192.05	-1081.8	332.01	162.57	-1147.8	118.44	203.83	-1113.6	132.31	290.15	-1210.5	72.033	258.67	-1199	45.298	289.5	-1211.3	46.491	228.92	-1031.2	40.234	164.74	-1002.6	47.052	283.53	-940.43	55.678	225.57	-1006.1	1579.4	304.14	-1130.6	1307.2	300.23
91	0.375	-854.53	1273	318.06	-948.65	1542.5	462.5	-946.97	1549.2	136.8	-957.73	1837.3	294.48	-945.11	1025.2	442.07	-926.86	1023.5	193.96	-1145.1	1040.1	351.92	-1139.2	1045.4	260.49	-1016.7	950.13	510.76	-1027.5	944.31	120.6	-1033.4	1110.2	478.1	-1017.5	1100.4	145.71	-1154.6	1008.5	318.73	-853.08	775.05	513.15	-775.47	737.82	456.62	-818.92	692.38	493.97	-814.68	817.08	473.51	-788.11	600.66	477.45	-777.13	593.43	347.64	-865.57	364.41	452.12	-806.64	297.06	452.63	-867.71	290.28	432.26	-803.37	372.76	471.45	-827.69	196.09	430.41	-811.57	224.81	345.76	-893.11	143.55	360.17	-876.77	114.58	332.16	-887.29	113.91	396.16	-731.09	107.57	467.45	-681.73	123.55	354.78	-628.19	145	408.39	-1052.2	707.09	135.16	-980.94	626.32	162.22	-1052.6	613.33	155.11	-973.31	715.08	141.52	-1054.7	520.41	165.67	-1148.3	329.16	172.32	-1088.3	263.09	177.37	-1159.7	259.52	192.35	-1081.1	332.01	162.64	-1147.7	118.54	204.05	-1113.3	132.31	290.31	-1210.4	72.117	258.94	-1198.9	45.322	289.73	-1211.2	46.597	229.16	-1031.2	40.226	164.75	-1002.4	46.971	283.53	-940.35	55.471	225.56	-1000.7	1578.8	304.28	-1125.1	1306.6	300.36
92	0.37917	-849.27	1272.3	318.01	-943.31	1541.7	462.63	-941.61	1548.6	136.96	-952.45	1836.6	294.99	-939.49	1024.5	442.01	-921.42	1023.2	193.9	-1139.8	1039.6	352.4	-1134.2	1045	260.96	-1011.2	949.37	510.88	-1023	943.96	120.75	-1027.5	1109.5	478.27	-1012.6	1099.8	145.88	-1149.2	1008	319.23	-848.32	773.35	512.78	-771.05	735.82	456.03	-814.54	690.55	493.53	-809.84	815.22	473.03	-783.51	599.17	476.82	-772.96	591.55	347.02	-855.29	360.83	452.96	-794.53	295.12	453.52	-855.53	286.61	433.32	-793.2	370.92	472.09	-812.87	193.33	431.66	-797.85	222.13	346.92	-877.19	138.83	361.88	-860.09	110.19	333.87	-870.4	109.42	397.92	-713.73	107.31	468.62	-665.25	124.33	355.79	-612.07	147.33	409.13	-1049.3	707.03	135.22	-978.58	625.78	162.28	-1050.3	613.28	155.23	-970.39	714.46	141.46	-1053.2	520.31	165.81	-1147.6	329.39	172.61	-1087.8	263.11	177.42	-1159.2	259.8	192.64	-1080.4	331.98	162.7	-1147.5	118.64	204.26	-1113	132.3	290.48	-1210.2	72.194	259.21	-1198.8	45.344	289.96	-1211.2	46.698	229.4	-1031.2	40.217	164.76	-1002.3	46.891	283.53	-940.27	55.265	225.55	-995.38	1578.2	304.43	-1119.7	1305.9	300.51
93	0.38333	-844.01	1271.6	317.96	-937.96	1540.9	462.78	-936.26	1548	137.15	-947.17	1835.8	295.52	-933.84	1023.8	441.96	-916.03	1022.7	193.85	-1134.4	1039.1	352.89	-1129.1	1044.6	261.45	-1005.6	948.53	510.99	-1018.5	943.56	120.9	-1021.5	1108.7	478.44	-1007.7	1099.2	146.06	-1143.9	1007.5	319.73	-843.57	771.51	512.4	-766.69	733.63	455.41	-810.21	688.57	493.11	-805.04	813.2	472.51	-778.98	597.54	476.18	-768.92	589.49	346.39	-845.16	357.28	453.82	-782.62	293.24	454.44	-843.52	283.03	434.39	-783.21	369.09	472.73	-798.28	190.69	432.94	-784.34	219.52	348.09	-861.48	134.3	363.62	-843.66	106	335.61	-853.74	105.13	399.71	-696.69	107.15	469.8	-649.13	125.16	356.8	-596.31	149.68	409.87	-1046.3	706.93	135.28	-976.15	625.21	162.34	-1047.9	613.2	155.34	-967.42	713.82	141.4	-1051.6	520.19	165.94	-1146.8	329.61	172.9	-1087.3	263.1	177.48	-1158.7	260.08	192.94	-1079.6	331.93	162.76	-1147.4	118.74	204.48	-1112.6	132.28	290.65	-1210.1	72.267	259.5	-1198.6	45.364	290.21	-1211.1	46.794	229.65	-1031.2	40.207	164.77	-1002.1	46.812	283.53	-940.18	55.062	225.54	-990.05	1577.5	304.59	-1114.2	1305.2	300.68
94	0.3875	-838.76	1270.7	317.92	-932.6	1540	462.94	-930.91	1547.4	137.34	-941.89	1834.9	296.06	-928.17	1023	441.91	-910.68	1022.2	193.82	-1128.9	1038.4	353.4	-1123.9	1044.1	261.95	-999.94	947.61	511.09	-1014	943.12	121.03	-1015.5	1107.9	478.61	-1002.7	1098.6	146.24	-1138.5	1006.9	320.25	-838.83	769.54	512	-762.39	731.27	454.75	-805.93	686.45	492.7	-800.26	811.02	471.95	-774.53	595.76	475.55	-764.98	587.26	345.74	-835.19	353.8	454.66	-770.95	291.42	455.36	-831.72	279.54	435.45	-773.42	367.28	473.36	-783.94	188.17	434.22	-771.07	217.01	349.28	-846.01	129.96	365.37	-827.52	102.01	337.37	-837.35	101.04	401.52	-680.01	107.1	470.98	-633.4	126.02	357.8	-580.94	152.02	410.59	-1043.2	706.8	135.34	-973.64	624.63	162.4	-1045.4	613.09	155.45	-964.39	713.15	141.34	-1049.9	520.04	166.08	-1146	329.82	173.19	-1086.7	263.08	177.53	-1158.2	260.34	193.23	-1078.8	331.87	162.83	-1147.2	118.84	204.7	-1112.3	132.26	290.82	-1210	72.336	259.79	-1198.5	45.383	290.46	-1211	46.887	229.9	-1031.2	40.195	164.78	-1002	46.734	283.53	-940.1	54.861	225.52	-984.72	1576.7	304.78	-1108.7	1304.5	300.86
95	0.39167	-833.5	1269.8	317.89	-927.25	1539	463.11	-925.58	1546.6	137.56	-936.62	1834	296.61	-922.46	1022.1	441.87	-905.41	1021.6	193.79	-1123.3	1037.7	353.92	-1118.7	1043.5	262.47	-994.27	946.6	511.19	-1009.4	942.63	121.16	-1009.5	1106.9	478.79	-997.8	1097.9	146.42	-1133	1006.2	320.77	-834.09	767.46	511.61	-758.14	728.75	454.06	-801.68	684.2	492.3	-795.49	808.7	471.35	-770.15	593.86	474.92	-761.13	584.87	345.07	-825.41	350.38	455.5	-759.53	289.65	456.29	-820.13	276.14	436.51	-763.85	365.49	473.98	-769.89	185.76	435.5	-758.07	214.58	350.47	-830.83	125.82	367.13	-811.7	98.218	339.11	-821.29	97.174	403.33	-663.73	107.12	472.15	-618.08	126.91	358.8	-565.98	154.33	411.3	-1040.1	706.64	135.4	-971.05	624.03	162.45	-1042.8	612.94	155.56	-961.31	712.45	141.29	-1048.1	519.87	166.21	-1145.1	330.03	173.47	-1086	263.03	177.59	-1157.6	260.59	193.52	-1077.9	331.79	162.89	-1147	118.95	204.93	-1111.9	132.24	290.99	-1209.9	72.402	260.08	-1198.4	45.402	290.71	-1210.9	46.978	230.16	-1031.2	40.182	164.8	-1001.9	46.656	283.53	-940.02	54.663	225.5	-979.41	1575.9	304.98	-1103.3	1303.6	301.06
96	0.39583	-828.24	1268.9	317.86	-921.89	1538	463.3	-920.25	1545.9	137.79	-931.33	1833.1	297.18	-916.73	1021.2	441.83	-900.2	1020.9	193.78	-1117.7	1037	354.46	-1113.3	1042.9	263.01	-988.56	945.52	511.28	-1004.8	942.1	121.29	-1003.5	1105.9	478.98	-992.86	1097.1	146.61	-1127.6	1005.4	321.3	-829.34	765.28	511.21	-753.93	726.09	453.35	-797.45	681.83	491.93	-790.73	806.25	470.71	-765.83	591.85	474.31	-757.35	582.35	344.4	-815.83	347.03	456.32	-748.4	287.95	457.21	-808.8	272.86	437.54	-754.52	363.72	474.59	-756.17	183.47	436.76	-745.35	212.24	351.66	-815.97	121.89	368.86	-796.24	94.633	340.83	-805.59	93.514	405.12	-647.9	107.19	473.3	-603.2	127.8	359.78	-551.47	156.58	412.01	-1036.9	706.45	135.45	-968.38	623.4	162.5	-1040.2	612.77	155.67	-958.16	711.73	141.23	-1046.2	519.67	166.34	-1144.2	330.23	173.74	-1085.3	262.97	177.64	-1156.9	260.84	193.8	-1076.9	331.68	162.95	-1146.8	119.06	205.15	-1111.6	132.21	291.17	-1209.8	72.466	260.38	-1198.3	45.423	290.97	-1210.9	47.068	230.42	-1031.3	40.167	164.81	-1001.7	46.579	283.53	-939.95	54.466	225.48	-974.1	1575	305.2	-1097.9	1302.7	301.27
97	0.4	-822.99	1267.9	317.83	-916.53	1536.9	463.51	-914.93	1545.1	138.03	-926.04	1832.1	297.76	-910.97	1020.2	441.79	-895.07	1020.1	193.79	-1112	1036.2	355	-1107.9	1042.2	263.55	-982.81	944.36	511.36	-1000.1	941.54	121.41	-997.43	1104.9	479.18	-987.9	1096.3	146.8	-1122.1	1004.6	321.84	-824.57	763.01	510.82	-749.75	723.31	452.61	-793.24	679.37	491.59	-785.97	803.7	470.04	-761.55	589.75	473.71	-753.64	579.71	343.73	-806.46	343.77	457.11	-737.57	286.3	458.1	-797.73	269.67	438.53	-745.44	361.97	475.17	-742.8	181.28	438	-732.96	209.99	352.82	-801.46	118.16	370.56	-781.18	91.251	342.5	-790.3	90.059	406.86	-632.54	107.3	474.41	-588.79	128.69	360.74	-537.43	158.77	412.7	-1033.6	706.22	135.5	-965.62	622.75	162.55	-1037.4	612.56	155.78	-954.93	710.98	141.17	-1044.2	519.44	166.46	-1143.2	330.42	174	-1084.6	262.9	177.69	-1156.3	261.07	194.08	-1075.9	331.56	163.02	-1146.7	119.18	205.37	-1111.2	132.18	291.35	-1209.7	72.53	260.67	-1198.1	45.447	291.23	-1210.8	47.16	230.68	-1031.3	40.149	164.83	-1001.6	46.501	283.53	-939.87	54.271	225.46	-968.8	1574	305.45	-1092.5	1301.8	301.5
98	0.40417	-817.72	1266.8	317.82	-911.17	1535.8	463.73	-909.62	1544.2	138.3	-920.74	1831	298.35	-905.19	1019.2	441.76	-890.01	1019.2	193.8	-1106.2	1035.3	355.56	-1102.4	1041.4	264.11	-977	943.13	511.43	-995.47	940.93	121.53	-991.41	1103.7	479.38	-982.92	1095.5	146.99	-1116.6	1003.7	322.39	-819.77	760.68	510.43	-745.59	720.42	451.85	-789.02	676.83	491.27	-781.2	801.06	469.34	-757.32	587.56	473.13	-749.97	576.97	343.07	-797.33	340.59	457.85	-727.06	284.69	458.96	-786.96	266.6	439.47	-736.63	360.23	475.72	-729.83	179.2	439.2	-720.9	207.82	353.96	-787.36	114.63	372.19	-766.56	88.067	344.11	-775.45	86.801	408.54	-617.69	107.43	475.47	-574.87	129.55	361.67	-523.87	160.85	413.37	-1030.3	705.96	135.55	-962.78	622.08	162.59	-1034.6	612.32	155.88	-951.64	710.22	141.11	-1042.1	519.19	166.58	-1142.1	330.6	174.25	-1083.7	262.8	177.74	-1155.5	261.3	194.35	-1074.8	331.42	163.07	-1146.5	119.3	205.58	-1110.8	132.16	291.53	-1209.6	72.597	260.97	-1198	45.478	291.49	-1210.7	47.256	230.93	-1031.3	40.129	164.85	-1001.4	46.423	283.53	-939.8	54.075	225.44	-963.52	1573.1	305.71	-1087.1	1300.8	301.74
99	0.40833	-812.46	1265.7	317.81	-905.81	1534.6	463.97	-904.32	1543.4	138.59	-915.43	1829.9	298.96	-899.39	1018.1	441.74	-885.01	1018.2	193.83	-1100.5	1034.3	356.12	-1096.9	1040.6	264.69	-971.15	941.83	511.5	-990.75	940.29	121.65	-985.4	1102.5	479.6	-977.93	1094.6	147.19	-1111.1	1002.7	322.94	-814.94	758.29	510.06	-741.44	717.46	451.08	-784.79	674.23	490.98	-776.42	798.34	468.61	-753.12	585.3	472.58	-746.34	574.16	342.41	-788.45	337.5	458.56	-716.89	283.12	459.78	-776.51	263.63	440.36	-728.08	358.51	476.24	-717.27	177.2	440.35	-709.22	205.73	355.06	-773.69	111.29	373.76	-752.41	85.073	345.64	-761.09	83.731	410.15	-603.4	107.54	476.47	-561.46	130.37	362.56	-510.83	162.82	414.03	-1026.8	705.66	135.6	-959.83	621.39	162.63	-1031.7	612.05	155.98	-948.27	709.43	141.05	-1039.9	518.91	166.69	-1140.9	330.78	174.49	-1082.9	262.69	177.79	-1154.7	261.53	194.61	-1073.6	331.25	163.13	-1146.3	119.43	205.79	-1110.5	132.14	291.7	-1209.5	72.67	261.26	-1197.9	45.519	291.75	-1210.7	47.359	231.19	-1031.3	40.105	164.87	-1001.3	46.343	283.53	-939.72	53.878	225.42	-958.24	1572	305.99	-1081.7	1299.7	301.99
100	0.4125	-807.19	1264.6	317.81	-900.46	1533.4	464.24	-899.03	1542.4	138.89	-910.11	1828.8	299.58	-893.56	1016.9	441.72	-880.08	1017.1	193.86	-1094.7	1033.3	356.69	-1091.4	1039.7	265.27	-965.24	940.46	511.56	-985.99	939.61	121.77	-979.4	1101.3	479.82	-972.92	1093.6	147.4	-1105.6	1001.7	323.5	-810.07	755.87	509.7	-737.28	714.43	450.3	-780.54	671.59	490.71	-771.62	795.57	467.88	-748.93	582.99	472.06	-742.71	571.29	341.77	-779.84	334.5	459.21	-707.08	281.58	460.55	-766.4	260.77	441.18	-719.82	356.8	476.72	-705.16	175.29	441.43	-697.93	203.72	356.11	-760.49	108.13	375.22	-738.78	82.257	347.08	-747.25	80.837	411.65	-589.68	107.61	477.4	-548.59	131.12	363.41	-498.32	164.64	414.67	-1023.3	705.34	135.66	-956.79	620.68	162.66	-1028.6	611.75	156.08	-944.82	708.62	140.99	-1037.5	518.6	166.8	-1139.6	330.96	174.7	-1082	262.57	177.83	-1153.9	261.76	194.85	-1072.4	331.07	163.18	-1146.1	119.58	206	-1110.1	132.12	291.87	-1209.4	72.752	261.54	-1197.7	45.573	292.01	-1210.6	47.471	231.45	-1031.4	40.077	164.9	-1001.1	46.262	283.53	-939.65	53.679	225.39	-952.97	1571	306.29	-1076.4	1298.6	302.26
